# xmcd CD database file
#
# Track frame offsets:
#	150
#	22488
#	42212
#	65985
#	85366
#	106638
#	125514
#	148472
#	164774
#
# Disc length: 2496 seconds
#
# Revision: 0
# Processed by: cddbd v1.5.1PL0 Copyright (c) Steve Scherf et al.
# Submitted via: CDex 1.51
#
DISCID=8d09be09
DTITLE=Christopher Plock - My Romance
DYEAR=1900
DGENRE=Jazz
TTITLE0=My Romance
TTITLE1=Mean to Me
TTITLE2=There Will Never Be Another You
TTITLE3=Peace
TTITLE4=Bye Bye Blackbird
TTITLE5=I Can't Believe You're In Love With Me
TTITLE6=Since I Fell For You
TTITLE7=Our Love Is Here To Stay
TTITLE8=Doxy
EXTD=
EXTT0=
EXTT1=
EXTT2=
EXTT3=
EXTT4=
EXTT5=
EXTT6=
EXTT7=
EXTT8=
PLAYORDER=
